<svg version="1.1" xmlns="http://www.w3.org/2000/svg" viewBox="0 0 1196.417481117649 621.8000411987305" width="1196.417481117649" height="621.8000411987305">
  <!-- svg-source:excalidraw -->
  
  <defs>
    <style>
      @font-face {
        font-family: "Virgil";
        src: url("https://excalidraw.com/Virgil.woff2");
      }
      @font-face {
        font-family: "Cascadia";
        src: url("https://excalidraw.com/Cascadia.woff2");
      }
    </style>
  </defs>
  <rect x="0" y="0" width="1196.417481117649" height="621.8000411987305" fill="#ffffff"></rect><g stroke-linecap="round" transform="translate(61.217407875461504 10) rotate(0 186.80001831054688 63.600006103515625)"><path d="M0.19 -0.53 C98.41 -1.45, 196.68 -1.71, 374.61 1.22 M-0.55 -0.44 C106.39 -0.69, 212.81 0.07, 373.06 -0.1 M374.34 1.99 C373.26 47.82, 371.99 98.82, 375.53 127.2 M374.01 -0.09 C373.6 39.28, 374.85 79.35, 373.38 126.36 M374.45 127.31 C276.6 125.84, 179.23 126.05, 1.05 126.96 M373.47 127.03 C270.28 129.47, 168.25 128.59, 0.42 127.35 M-1.5 127.5 C-2.56 81.52, 0.67 36.49, 0.63 0.89 M0.25 127.79 C0.02 97.14, 0.01 68.62, 0.99 -0.61" stroke="#000000" stroke-width="1" fill="none"></path></g><g stroke-linecap="round"><g transform="translate(384.417481117649 102.80005645751953) rotate(0 68.28781334608794 -39.44583405703306)"><path d="M-0.95 0.7 C21.83 -12.48, 114.33 -66.42, 137.53 -79.59 M0.75 0.02 C23.29 -12.94, 113.7 -64.89, 136.54 -78.26" stroke="#000000" stroke-width="1" fill="none"></path></g><g transform="translate(384.417481117649 102.80005645751953) rotate(0 68.28781334608794 -39.44583405703306)"><path d="M118.46 -55.37 C123.86 -62.54, 133.12 -72.57, 135.73 -77.28 M116.33 -56.22 C121.73 -59.53, 125.84 -64.11, 136.16 -77.94" stroke="#000000" stroke-width="1" fill="none"></path></g><g transform="translate(384.417481117649 102.80005645751953) rotate(0 68.28781334608794 -39.44583405703306)"><path d="M108.17 -73.13 C117.31 -73.65, 130.37 -77.1, 135.73 -77.28 M106.05 -73.98 C113.63 -73.65, 119.85 -74.58, 136.16 -77.94" stroke="#000000" stroke-width="1" fill="none"></path></g></g><g transform="translate(544.417481117649 14.600021362304688) rotate(0 321 62)"><text x="0" y="17.8" font-family="Virgil, Segoe UI Emoji" font-size="20px" fill="#000000" text-anchor="start" style="white-space: pre;" direction="ltr">As  soon as we say  array.foreach() we will convert this array </text><text x="0" y="42.6" font-family="Virgil, Segoe UI Emoji" font-size="20px" fill="#000000" text-anchor="start" style="white-space: pre;" direction="ltr">into a stream of data ANd the value is passed to the function</text><text x="0" y="67.4" font-family="Virgil, Segoe UI Emoji" font-size="20px" fill="#000000" text-anchor="start" style="white-space: pre;" direction="ltr">one after another  like this  : 100 ,200,33,45,65,76,51</text><text x="0" y="92.2" font-family="Virgil, Segoe UI Emoji" font-size="20px" fill="#000000" text-anchor="start" style="white-space: pre;" direction="ltr"></text><text x="0" y="117" font-family="Virgil, Segoe UI Emoji" font-size="20px" fill="#000000" text-anchor="start" style="white-space: pre;" direction="ltr"></text></g><g stroke-linecap="round"><g transform="translate(87.61749332468025 46.000022888183594) rotate(0 -37.30964097231626 3.9295172071736246)"><path d="M0.04 -0.35 C-12.38 0.91, -62.22 6.92, -74.66 8.49 M-1.4 -1.59 C-13.45 -0.3, -60.7 7.5, -72.5 9.44" stroke="#000000" stroke-width="1" fill="none"></path></g></g><g stroke-linecap="round"><g transform="translate(14.017487221164629 55.60002899169922) rotate(0 -1.3830333398422283 76.66631717803887)"><path d="M0.19 0.66 C-0.01 25.86, -1.74 126.57, -1.87 151.89 M-1.16 -0.03 C-1.5 25.29, -3.02 128.27, -2.96 153.37" stroke="#000000" stroke-width="1" fill="none"></path></g></g><g stroke-linecap="round"><g transform="translate(10.017487221164629 206.80001068115234) rotate(0 52.78718967084774 -0.4874015610385811)"><path d="M0.95 -0.84 C18.17 -0.93, 85.91 -0.66, 103.27 -0.67 M-0.02 1.33 C17.61 0.92, 88.11 -1.6, 105.59 -2.31" stroke="#000000" stroke-width="1" fill="none"></path></g><g transform="translate(10.017487221164629 206.80001068115234) rotate(0 52.78718967084774 -0.4874015610385811)"><path d="M76.41 7.78 C87.47 7.29, 95.12 2.02, 106.6 -3.68 M77.25 9.59 C83.49 6.98, 89.88 3.94, 106.57 -1.7" stroke="#000000" stroke-width="1" fill="none"></path></g><g transform="translate(10.017487221164629 206.80001068115234) rotate(0 52.78718967084774 -0.4874015610385811)"><path d="M75.64 -12.73 C86.9 -7.25, 94.78 -6.53, 106.6 -3.68 M76.48 -10.92 C82.72 -8.83, 89.28 -7.19, 106.57 -1.7" stroke="#000000" stroke-width="1" fill="none"></path></g></g><g transform="translate(127.61749332468025 193.0000228881836) rotate(0 327 62)"><text x="0" y="17.8" font-family="Virgil, Segoe UI Emoji" font-size="20px" fill="#000000" text-anchor="start" style="white-space: pre;" direction="ltr">first of all the value 100 is passed to the callback function</text><text x="0" y="42.6" font-family="Virgil, Segoe UI Emoji" font-size="20px" fill="#000000" text-anchor="start" style="white-space: pre;" direction="ltr">so the value of the  num is now  100 so we  are saying  to print</text><text x="0" y="67.4" font-family="Virgil, Segoe UI Emoji" font-size="20px" fill="#000000" text-anchor="start" style="white-space: pre;" direction="ltr">the num value in the console . this  will print the  number in the </text><text x="0" y="92.2" font-family="Virgil, Segoe UI Emoji" font-size="20px" fill="#000000" text-anchor="start" style="white-space: pre;" direction="ltr">console. so the console will print 100</text><text x="0" y="117" font-family="Virgil, Segoe UI Emoji" font-size="20px" fill="#000000" text-anchor="start" style="white-space: pre;" direction="ltr"></text></g><g stroke-linecap="round"><g transform="translate(12.417481117649004 206.0000228881836) rotate(0 0.22501580918165587 44.53516217353754)"><path d="M-0.52 0.53 C-0.65 15.28, -1.13 73.6, -1.07 88.12 M1.41 -0.23 C1.67 14.69, 1.48 74.53, 1.07 89.3" stroke="#000000" stroke-width="1" fill="none"></path></g></g><g stroke-linecap="round"><g transform="translate(13.87461331486702 334.7850884785813) rotate(0 19.945930205437264 -0.004414966569925127)"><path d="M0.86 0.85 C7.41 0.85, 33.45 1, 40.03 0.67 M-0.14 0.25 C6.19 -0.13, 32.46 -0.82, 39.13 -0.89" stroke="#000000" stroke-width="1" fill="none"></path></g><g transform="translate(13.87461331486702 334.7850884785813) rotate(0 19.945930205437264 -0.004414966569925127)"><path d="M21.91 6.45 C28.97 4.26, 32.73 2.03, 39.64 -1.34 M20.45 6.35 C26.78 3.92, 33.8 2.01, 39.79 -0.73" stroke="#000000" stroke-width="1" fill="none"></path></g><g transform="translate(13.87461331486702 334.7850884785813) rotate(0 19.945930205437264 -0.004414966569925127)"><path d="M21.63 -7.22 C28.88 -4.45, 32.73 -1.72, 39.64 -1.34 M20.17 -7.32 C26.63 -5, 33.75 -2.16, 39.79 -0.73" stroke="#000000" stroke-width="1" fill="none"></path></g></g><g stroke-linecap="round"><g transform="translate(12.417481117649004 293.20003509521484) rotate(0 1.8118599892128202 39.00589548063931)"><path d="M1.11 0.25 C1.28 13.42, 1.05 65.69, 1 78.67 M0.23 -0.66 C0.8 12.15, 2.89 63.37, 3.39 76.69" stroke="#000000" stroke-width="1" fill="none"></path></g></g><g stroke-linecap="round"><g transform="translate(13.217499428195879 371.60009002685547) rotate(0 0.732234017550951 38.21858106802216)"><path d="M-0.35 -0.44 C-0.07 12.37, 1.62 64.14, 1.81 76.96 M1.67 -1.72 C1.8 11.23, 0.71 65, 0.98 78.16" stroke="#000000" stroke-width="1" fill="none"></path></g></g><g stroke-linecap="round"><g transform="translate(14.817475014133379 447.60005950927734) rotate(0 -0.7492460362240649 30.69725571613759)"><path d="M-0.64 -0.51 C-1.06 9.85, -1.54 51.39, -1.99 61.93 M1.23 -1.83 C0.63 8.72, -2.36 52.22, -2.72 63.22" stroke="#000000" stroke-width="1" fill="none"></path></g></g><g transform="translate(256.417481117649 139.60002899169922) rotate(0 1.600006103515625 16.79999542236328)" stroke="none" fill="#000000"><path d="M 2.57,-0.42 Q 2.57,-0.42 2.79,0.95 3.01,2.33 3.24,3.79 3.46,5.26 4.28,6.71 5.10,8.17 5.29,9.32 5.47,10.47 5.84,11.76 6.21,13.04 6.34,14.49 6.47,15.94 6.52,17.26 6.57,18.58 6.58,19.72 6.60,20.86 6.62,22.35 6.64,23.85 6.60,25.04 6.56,26.23 6.57,27.51 6.58,28.79 6.61,31.19 6.64,33.59 6.55,34.14 6.46,34.69 6.20,35.19 5.94,35.68 5.53,36.06 5.13,36.44 4.62,36.68 4.12,36.91 3.56,36.97 3.01,37.03 2.46,36.91 1.92,36.79 1.44,36.51 0.97,36.22 0.61,35.79 0.25,35.37 0.04,34.85 -0.16,34.33 -0.19,33.78 -0.22,33.22 -0.07,32.69 0.07,32.15 0.38,31.69 0.70,31.23 1.14,30.89 1.58,30.55 2.11,30.38 2.64,30.20 3.20,30.20 3.75,30.20 4.28,30.38 4.81,30.55 5.25,30.89 5.69,31.23 6.01,31.69 6.32,32.15 6.47,32.69 6.62,33.22 6.59,33.78 6.56,34.34 6.35,34.85 6.14,35.37 5.78,35.79 5.42,36.22 4.95,36.51 4.47,36.79 3.92,36.91 3.38,37.03 2.83,36.97 2.27,36.91 1.77,36.68 1.26,36.44 0.86,36.06 0.45,35.68 0.19,35.19 -0.06,34.69 -0.15,34.14 -0.24,33.59 -0.24,33.59 -0.24,33.59 -0.21,31.19 -0.18,28.79 -0.17,27.51 -0.16,26.23 -0.20,24.41 -0.24,22.58 -0.21,21.22 -0.18,19.86 -0.16,18.43 -0.13,17.00 -0.03,15.79 0.06,14.59 0.08,12.64 0.10,10.70 -0.62,9.37 -1.35,8.04 -1.67,6.93 -1.98,5.83 -2.04,4.50 -2.09,3.18 -2.33,1.80 -2.57,0.42 -2.58,0.11 -2.60,-0.19 -2.54,-0.50 -2.47,-0.81 -2.34,-1.10 -2.21,-1.38 -2.01,-1.63 -1.81,-1.87 -1.56,-2.06 -1.31,-2.25 -1.02,-2.37 -0.73,-2.50 -0.42,-2.55 -0.11,-2.60 0.19,-2.58 0.51,-2.55 0.81,-2.46 1.10,-2.36 1.37,-2.19 1.64,-2.02 1.86,-1.80 2.08,-1.57 2.23,-1.30 2.39,-1.03 2.48,-0.73 2.57,-0.42 2.57,-0.42 L 2.57,-0.42 Z"></path></g><g transform="translate(262.8175055317115 171.60002899169922) rotate(0 17.600006103515625 0)" stroke="none" fill="#000000"><path d="M 0,-2.64 Q 0,-2.64 1.37,-2.64 2.75,-2.63 4.15,-2.70 5.54,-2.78 6.91,-2.84 8.28,-2.89 9.60,-2.94 10.93,-3.00 12.39,-3.03 13.84,-3.06 14.92,-3.06 16.00,-3.05 17.15,-3.04 18.30,-3.03 19.55,-3.07 20.80,-3.11 22.15,-3.13 23.49,-3.16 24.55,-3.15 25.62,-3.14 27.05,-3.16 28.49,-3.19 29.72,-3.16 30.96,-3.12 33.08,-3.14 35.20,-3.16 35.70,-3.08 36.21,-3.00 36.66,-2.76 37.11,-2.52 37.46,-2.14 37.82,-1.77 38.03,-1.31 38.25,-0.84 38.30,-0.33 38.36,0.17 38.25,0.67 38.14,1.17 37.87,1.61 37.61,2.05 37.22,2.38 36.83,2.71 36.35,2.90 35.88,3.09 35.36,3.12 34.85,3.14 34.36,3.01 33.86,2.87 33.44,2.58 33.02,2.29 32.71,1.89 32.40,1.48 32.23,0.99 32.07,0.51 32.07,-0.00 32.07,-0.51 32.23,-0.99 32.40,-1.48 32.71,-1.89 33.02,-2.29 33.44,-2.58 33.87,-2.87 34.36,-3.01 34.85,-3.14 35.36,-3.12 35.88,-3.09 36.35,-2.90 36.83,-2.71 37.22,-2.38 37.61,-2.04 37.87,-1.61 38.14,-1.17 38.25,-0.67 38.36,-0.17 38.30,0.33 38.25,0.84 38.03,1.31 37.82,1.77 37.46,2.14 37.11,2.52 36.66,2.76 36.21,3.00 35.70,3.08 35.19,3.16 35.19,3.16 35.20,3.16 33.08,3.14 30.96,3.12 29.72,3.16 28.49,3.19 27.05,3.16 25.62,3.14 24.55,3.15 23.49,3.16 22.15,3.13 20.80,3.11 19.55,3.07 18.30,3.03 17.15,3.04 16.00,3.05 14.92,3.06 13.84,3.06 12.39,3.03 10.93,3.00 9.60,2.94 8.28,2.89 6.91,2.84 5.54,2.78 4.15,2.70 2.75,2.63 1.37,2.64 0,2.64 -0.31,2.61 -0.63,2.57 -0.93,2.45 -1.23,2.34 -1.49,2.16 -1.75,1.98 -1.96,1.74 -2.18,1.50 -2.32,1.22 -2.47,0.93 -2.55,0.62 -2.62,0.31 -2.62,-0.00 -2.62,-0.31 -2.55,-0.62 -2.47,-0.93 -2.32,-1.22 -2.18,-1.50 -1.96,-1.74 -1.75,-1.98 -1.49,-2.16 -1.23,-2.34 -0.93,-2.45 -0.63,-2.57 -0.31,-2.61 0.00,-2.64 0.00,-2.64 L 0,-2.64 Z"></path></g><g transform="translate(294.01751773874275 160.40003204345703) rotate(0 4.799957275390625 8.400001525878906)" stroke="none" fill="#000000"><path d="M 1.45,-2.18 Q 1.45,-2.18 2.80,-1.22 4.14,-0.26 5.93,0.36 7.73,0.98 9.16,1.89 10.60,2.81 11.74,3.71 12.89,4.61 13.74,5.79 14.59,6.98 15.28,8.04 15.96,9.10 16.70,10.38 17.45,11.66 17.64,13.64 17.84,15.61 17.24,16.61 16.65,17.61 15.22,18.03 13.79,18.45 12.07,19.23 10.35,20.00 8.11,20.05 5.87,20.11 4.64,20.08 3.41,20.05 2.20,20.02 0.99,19.99 -0.21,19.96 -1.41,19.93 -3.50,19.95 -5.59,19.97 -6.10,19.89 -6.61,19.80 -7.06,19.56 -7.52,19.32 -7.87,18.95 -8.22,18.58 -8.44,18.11 -8.65,17.65 -8.71,17.13 -8.77,16.62 -8.66,16.12 -8.55,15.62 -8.28,15.18 -8.02,14.74 -7.62,14.41 -7.23,14.07 -6.76,13.88 -6.28,13.69 -5.77,13.67 -5.25,13.64 -4.76,13.78 -4.26,13.91 -3.84,14.20 -3.41,14.49 -3.10,14.90 -2.79,15.31 -2.63,15.79 -2.46,16.28 -2.46,16.79 -2.46,17.31 -2.63,17.80 -2.79,18.28 -3.10,18.69 -3.41,19.10 -3.84,19.39 -4.26,19.68 -4.76,19.81 -5.25,19.95 -5.76,19.92 -6.28,19.90 -6.75,19.71 -7.23,19.52 -7.62,19.18 -8.02,18.85 -8.28,18.41 -8.55,17.97 -8.66,17.47 -8.77,16.97 -8.71,16.46 -8.66,15.95 -8.44,15.48 -8.22,15.01 -7.87,14.64 -7.52,14.27 -7.06,14.03 -6.61,13.79 -6.10,13.70 -5.59,13.62 -5.60,13.62 -5.60,13.62 -3.51,13.64 -1.42,13.65 -0.22,13.62 0.97,13.59 2.16,13.55 3.36,13.52 4.56,13.47 5.75,13.42 7.45,13.47 9.15,13.52 10.62,13.43 12.09,13.34 10.95,12.01 9.81,10.67 9.17,9.28 8.54,7.89 7.47,7.20 6.40,6.50 5.17,5.77 3.94,5.04 2.66,4.49 1.37,3.94 -0.04,3.06 -1.45,2.18 -1.69,1.97 -1.93,1.77 -2.12,1.51 -2.30,1.25 -2.42,0.96 -2.53,0.66 -2.58,0.35 -2.62,0.04 -2.59,-0.27 -2.55,-0.58 -2.45,-0.88 -2.34,-1.18 -2.16,-1.44 -1.99,-1.70 -1.75,-1.92 -1.52,-2.13 -1.24,-2.28 -0.97,-2.43 -0.66,-2.51 -0.35,-2.60 -0.04,-2.60 0.27,-2.61 0.58,-2.53 0.89,-2.46 1.17,-2.32 1.45,-2.18 1.45,-2.18 L 1.45,-2.18 Z"></path></g><g transform="translate(329.21746891061775 161.80005645751953) rotate(0 203 12.5)"><text x="0" y="18" font-family="Virgil, Segoe UI Emoji" font-size="20px" fill="#000000" text-anchor="start" style="white-space: pre;" direction="ltr">return type of the  function is undefined</text></g><g transform="translate(73.2174078754615 23.098459323773625) rotate(0 179 50)"><text x="0" y="15" font-family="Virgil, Segoe UI Emoji" font-size="15.82282987965534px" fill="#000000" text-anchor="start" style="white-space: pre;" direction="ltr">let numbers = [100, 200, 33, 45, 65, 76, 51];</text><text x="0" y="35" font-family="Virgil, Segoe UI Emoji" font-size="15.82282987965534px" fill="#000000" text-anchor="start" style="white-space: pre;" direction="ltr">function double(num) {</text><text x="0" y="55" font-family="Virgil, Segoe UI Emoji" font-size="15.82282987965534px" fill="#000000" text-anchor="start" style="white-space: pre;" direction="ltr">  console.log(num);</text><text x="0" y="75" font-family="Virgil, Segoe UI Emoji" font-size="15.82282987965534px" fill="#000000" text-anchor="start" style="white-space: pre;" direction="ltr">}</text><text x="0" y="95" font-family="Virgil, Segoe UI Emoji" font-size="15.82282987965534px" fill="#000000" text-anchor="start" style="white-space: pre;" direction="ltr">let doubleNum = numbers.forEach(double);</text></g><g transform="translate(346.01751773874275 302.80004119873047) rotate(0 0.00004999999998744897 0.00004999999998744897)" stroke="none" fill="#000000"><path d="M 1.57,-1.57 Q 1.57,-1.57 1.77,-1.27 1.98,-0.98 2.09,-0.64 2.20,-0.29 2.19,0.05 2.18,0.41 2.05,0.75 1.93,1.09 1.70,1.37 1.48,1.65 1.18,1.84 0.87,2.04 0.52,2.12 0.18,2.21 -0.17,2.18 -0.53,2.15 -0.86,2.01 -1.19,1.87 -1.46,1.63 -1.73,1.39 -1.90,1.07 -2.08,0.76 -2.15,0.41 -2.21,0.05 -2.17,-0.29 -2.12,-0.65 -1.96,-0.97 -1.80,-1.29 -1.54,-1.54 -1.29,-1.80 -0.97,-1.96 -0.65,-2.12 -0.29,-2.17 0.06,-2.21 0.41,-2.15 0.76,-2.08 1.07,-1.90 1.39,-1.73 1.63,-1.46 1.87,-1.19 2.01,-0.86 2.15,-0.53 2.18,-0.17 2.21,0.18 2.12,0.52 2.03,0.87 1.84,1.18 1.65,1.48 1.37,1.70 1.09,1.93 0.75,2.05 0.41,2.18 0.05,2.19 -0.30,2.20 -0.64,2.09 -0.98,1.98 -1.27,1.77 -1.57,1.56 -1.57,1.57 -1.57,1.57 -1.73,1.35 -1.90,1.14 -2.01,0.90 -2.12,0.66 -2.16,0.39 -2.21,0.13 -2.20,-0.13 -2.18,-0.40 -2.10,-0.65 -2.02,-0.91 -1.88,-1.14 -1.74,-1.36 -1.55,-1.55 -1.36,-1.74 -1.14,-1.88 -0.91,-2.02 -0.65,-2.10 -0.40,-2.18 -0.13,-2.20 0.13,-2.21 0.39,-2.16 0.66,-2.12 0.90,-2.01 1.14,-1.90 1.35,-1.73 1.57,-1.57 1.57,-1.57 L 1.57,-1.57 Z"></path></g><g transform="translate(68.417481117649 322.60009002685547) rotate(0 354 37)"><text x="0" y="17.666666666666668" font-family="Virgil, Segoe UI Emoji" font-size="20px" fill="#000000" text-anchor="start" style="white-space: pre;" direction="ltr">so on ..... all the values are passed one by one and  the value of </text><text x="0" y="42.333333333333336" font-family="Virgil, Segoe UI Emoji" font-size="20px" fill="#000000" text-anchor="start" style="white-space: pre;" direction="ltr">num become  that number .so all the number  are printed in the console</text><text x="0" y="67" font-family="Virgil, Segoe UI Emoji" font-size="20px" fill="#000000" text-anchor="start" style="white-space: pre;" direction="ltr">but the return method is  undefined</text></g><g stroke-linecap="round"><g transform="translate(435.61749332468025 103.60002899169922) rotate(0 251.77929558534174 -0.836671428270634)"><path d="M1.19 -1.08 C84.61 -1.13, 417.65 -0.86, 500.87 -0.89 M0.36 0.97 C84.13 0.63, 419.46 -1.91, 503.2 -2.64" stroke="#000000" stroke-width="1" fill="none"></path></g></g><g stroke-linecap="round"><g transform="translate(938.0174567035865 104.40003204345703) rotate(0 2.3430726003181235 74.6781733693648)"><path d="M0.61 -1.18 C1.42 23.79, 4.53 124.24, 5.22 149.21 M-0.53 0.82 C0.06 26.01, 2.79 125.76, 4.07 150.54" stroke="#000000" stroke-width="1" fill="none"></path></g><g transform="translate(938.0174567035865 104.40003204345703) rotate(0 2.3430726003181235 74.6781733693648)"><path d="M-9.21 122.11 C-4.34 130.31, -1.59 142.34, 2.09 152.53 M-7.11 121.86 C-3.84 129.55, -0.98 134.8, 3.17 149.72" stroke="#000000" stroke-width="1" fill="none"></path></g><g transform="translate(938.0174567035865 104.40003204345703) rotate(0 2.3430726003181235 74.6781733693648)"><path d="M11.3 121.34 C9.44 129.89, 5.49 142.18, 2.09 152.53 M13.4 121.09 C12.01 129.16, 10.2 134.58, 3.17 149.72" stroke="#000000" stroke-width="1" fill="none"></path></g></g><g transform="translate(928.417481117649 254.60002899169922) rotate(0 110 25)"><text x="0" y="18" font-family="Virgil, Segoe UI Emoji" font-size="20px" fill="#000000" text-anchor="start" style="white-space: pre;" direction="ltr">this will finally return </text><text x="0" y="43" font-family="Virgil, Segoe UI Emoji" font-size="20px" fill="#000000" text-anchor="start" style="white-space: pre;" direction="ltr">undefined</text></g><g stroke-linecap="round"><g transform="translate(14.017487221164629 424.40001678466797) rotate(0 28.200413418300457 -0.45231295488775913)"><path d="M0.4 0.76 C9.77 0.65, 45.81 -1.12, 55.04 -1.66 M-0.85 0.11 C8.99 0.29, 47.96 0.14, 57.25 -0.16" stroke="#000000" stroke-width="1" fill="none"></path></g><g transform="translate(14.017487221164629 424.40001678466797) rotate(0 28.200413418300457 -0.45231295488775913)"><path d="M32.34 8.22 C36.38 7.33, 40.3 7.43, 55.67 1.27 M30.73 9.6 C37.03 6.82, 44.42 5.64, 57.36 -0.95" stroke="#000000" stroke-width="1" fill="none"></path></g><g transform="translate(14.017487221164629 424.40001678466797) rotate(0 28.200413418300457 -0.45231295488775913)"><path d="M32.05 -10.94 C35.99 -7.93, 39.97 -3.93, 55.67 1.27 M30.44 -9.56 C36.69 -7.56, 44.15 -3.97, 57.36 -0.95" stroke="#000000" stroke-width="1" fill="none"></path></g></g><g transform="translate(81.21749942819588 413.80004119873047) rotate(0 58 99)"><text x="0" y="17.75" font-family="Virgil, Segoe UI Emoji" font-size="20px" fill="#000000" text-anchor="start" style="white-space: pre;" direction="ltr">output  is :</text><text x="0" y="42.5" font-family="Virgil, Segoe UI Emoji" font-size="20px" fill="#000000" text-anchor="start" style="white-space: pre;" direction="ltr">100</text><text x="0" y="67.25" font-family="Virgil, Segoe UI Emoji" font-size="20px" fill="#000000" text-anchor="start" style="white-space: pre;" direction="ltr">200</text><text x="0" y="92" font-family="Virgil, Segoe UI Emoji" font-size="20px" fill="#000000" text-anchor="start" style="white-space: pre;" direction="ltr">33</text><text x="0" y="116.75" font-family="Virgil, Segoe UI Emoji" font-size="20px" fill="#000000" text-anchor="start" style="white-space: pre;" direction="ltr">45</text><text x="0" y="141.5" font-family="Virgil, Segoe UI Emoji" font-size="20px" fill="#000000" text-anchor="start" style="white-space: pre;" direction="ltr">65</text><text x="0" y="166.25" font-family="Virgil, Segoe UI Emoji" font-size="20px" fill="#000000" text-anchor="start" style="white-space: pre;" direction="ltr">76</text><text x="0" y="191" font-family="Virgil, Segoe UI Emoji" font-size="20px" fill="#000000" text-anchor="start" style="white-space: pre;" direction="ltr">51</text></g></svg>